# xmcd
#
# Track frame offsets:
#	150
#	12765
#	31237
#	45582
#	56269
#	66881
#	77416
#	86967
#	97820
#	112357
#	126240
#	140849
#	151015
#	166786
#	182848
#	193828
#	205591
#
# Disc length: 2908 seconds
#
# Revision: 1
# Processed by: cddbd v1.4b41PL1 Copyright (c) Steve Scherf et al.
# Submitted via: audiograbber 1.80
#
DISCID=dd0b5a11
DTITLE=Charley Pride - Legendary Charley Pride Disk 2
DYEAR=1900
DGENRE=
TTITLE0=A Whole Lotta Things to Sing About
TTITLE1=Where Do I Put Her Memory
TTITLE2=Amazing Love
TTITLE3=I'm Just Me
TTITLE4=A Brand New Bed of Roses
TTITLE5=Does My Ring Hurt Your Finger
TTITLE6=Don't Fight the Feelings of Love
TTITLE7=The Easy Part's Over
TTITLE8=Kaw - Liga
TTITLE9=Never Been So Loved (In All My Life)
TTITLE10=Burgers and Fries
TTITLE11=Then Who Am I
TTITLE12=You're So Good When You're Bad
TTITLE13=Roll On Mississippi
TTITLE14=I Know One
TTITLE15=Wonder Could I Live There Anymore
TTITLE16=Snakes Crawl At Night
EXTD=
EXTT0=
EXTT1=
EXTT2=
EXTT3=
EXTT4=
EXTT5=
EXTT6=
EXTT7=
EXTT8=
EXTT9=
EXTT10=
EXTT11=
EXTT12=
EXTT13=
EXTT14=
EXTT15=
EXTT16=
PLAYORDER=
